<svg width="1400" height="1000" xmlns="http://www.w3.org/2000/svg">
  <!-- Background -->
  <rect width="1400" height="1000" fill="#f8f9fa"/>

  <!-- Title -->
  <text x="700" y="35" font-size="28" font-weight="bold" text-anchor="middle" fill="#1a1a1a">
    Database Schema - Entity Relationships
  </text>

  <!-- Users Core -->
  <rect x="50" y="80" width="200" height="150" fill="#e3f2fd" stroke="#0288d1" stroke-width="2" rx="5"/>
  <text x="150" y="105" font-size="12" font-weight="bold" text-anchor="middle" fill="#01579b">users</text>
  <line x1="50" y1="115" x2="250" y2="115" stroke="#0288d1" stroke-width="1"/>
  <text x="60" y="135" font-size="9">🔑 id (PK)</text>
  <text x="60" y="150" font-size="9">phone_number</text>
  <text x="60" y="165" font-size="9">first_name</text>
  <text x="60" y="180" font-size="9">last_name</text>
  <text x="60" y="195" font-size="9">social_media</text>
  <text x="60" y="210" font-size="9">created_at</text>

  <!-- Account -->
  <rect x="320" y="80" width="200" height="120" fill="#e8f5e9" stroke="#2e7d32" stroke-width="2" rx="5"/>
  <text x="420" y="105" font-size="12" font-weight="bold" text-anchor="middle" fill="#1b5e20">accounts</text>
  <line x1="320" y1="115" x2="520" y2="115" stroke="#2e7d32" stroke-width="1"/>
  <text x="330" y="135" font-size="9">🔑 id (PK)</text>
  <text x="330" y="150" font-size="9">🔗 user_id (FK)</text>
  <text x="330" y="165" font-size="9">balance (decimal)</text>
  <text x="330" y="180" font-size="9">updated_at</text>

  <!-- Transaction -->
  <rect x="590" y="80" width="220" height="150" fill="#fff3e0" stroke="#e65100" stroke-width="2" rx="5"/>
  <text x="700" y="105" font-size="12" font-weight="bold" text-anchor="middle" fill="#bf360c">transactions</text>
  <line x1="590" y1="115" x2="810" y2="115" stroke="#e65100" stroke-width="1"/>
  <text x="600" y="135" font-size="9">🔑 id (PK)</text>
  <text x="600" y="150" font-size="9">🔗 user_id (FK)</text>
  <text x="600" y="165" font-size="9">amount, direction</text>
  <text x="600" y="180" font-size="9">type (enum)</text>
  <text x="600" y="195" font-size="9">reference_type/id</text>
  <text x="600" y="210" font-size="9">created_at</text>

  <!-- Loan -->
  <rect x="900" y="80" width="200" height="180" fill="#f3e5f5" stroke="#7b1fa2" stroke-width="2" rx="5"/>
  <text x="1000" y="105" font-size="12" font-weight="bold" text-anchor="middle" fill="#4a148c">loans</text>
  <line x1="900" y1="115" x2="1100" y2="115" stroke="#7b1fa2" stroke-width="1"/>
  <text x="910" y="135" font-size="9">🔑 id (PK)</text>
  <text x="910" y="150" font-size="9">🔗 user_id (FK)</text>
  <text x="910" y="165" font-size="9">amount, duration</text>
  <text x="910" y="180" font-size="9">monthly_amount</text>
  <text x="910" y="195" font-size="9">status (enum)</text>
  <text x="910" y="210" font-size="9">member_chat_id</text>
  <text x="910" y="225" font-size="9">approved_at</text>

  <!-- Bank Info -->
  <rect x="1150" y="80" width="200" height="120" fill="#fce4ec" stroke="#c2185b" stroke-width="2" rx="5"/>
  <text x="1250" y="105" font-size="12" font-weight="bold" text-anchor="middle" fill="#880e4f">user_bank_info</text>
  <line x1="1150" y1="115" x2="1350" y2="115" stroke="#c2185b" stroke-width="1"/>
  <text x="1160" y="135" font-size="9">🔑 id (PK)</text>
  <text x="1160" y="150" font-size="9">🔗 user_id (FK,U)</text>
  <text x="1160" y="165" font-size="9">card_number</text>
  <text x="1160" y="180" font-size="9">iban_number</text>

  <!-- Installments -->
  <rect x="900" y="300" width="200" height="140" fill="#f3e5f5" stroke="#7b1fa2" stroke-width="2" rx="5"/>
  <text x="1000" y="325" font-size="12" font-weight="bold" text-anchor="middle" fill="#4a148c">installments</text>
  <line x1="900" y1="335" x2="1100" y2="335" stroke="#7b1fa2" stroke-width="1"/>
  <text x="910" y="355" font-size="9">🔑 id (PK)</text>
  <text x="910" y="370" font-size="9">🔗 loan_id (FK)</text>
  <text x="910" y="385" font-size="9">amount, due_date</text>
  <text x="910" y="400" font-size="9">status (enum)</text>
  <text x="910" y="415" font-size="9">paid_at</text>

  <!-- Deposit -->
  <rect x="320" y="280" width="220" height="160" fill="#e8f5e9" stroke="#2e7d32" stroke-width="2" rx="5"/>
  <text x="430" y="305" font-size="12" font-weight="bold" text-anchor="middle" fill="#1b5e20">deposit_requests</text>
  <line x1="320" y1="315" x2="540" y2="315" stroke="#2e7d32" stroke-width="1"/>
  <text x="330" y="335" font-size="9">🔑 id (PK)</text>
  <text x="330" y="350" font-size="9">🔗 user_id (FK)</text>
  <text x="330" y="365" font-size="9">amount, proof_type</text>
  <text x="330" y="380" font-size="9">proof_content</text>
  <text x="330" y="395" font-size="9">status (enum)</text>
  <text x="330" y="410" font-size="9">🔗 approved_by (FK)</text>
  <text x="330" y="425" font-size="9">approved_at</text>

  <!-- Installment Payment -->
  <rect x="590" y="280" width="220" height="160" fill="#fff3e0" stroke="#e65100" stroke-width="2" rx="5"/>
  <text x="700" y="305" font-size="12" font-weight="bold" text-anchor="middle" fill="#bf360c">installment_payment_<br/>requests</text>
  <line x1="590" y1="325" x2="810" y2="325" stroke="#e65100" stroke-width="1"/>
  <text x="600" y="345" font-size="9">🔑 id (PK)</text>
  <text x="600" y="360" font-size="9">🔗 user_id (FK)</text>
  <text x="600" y="375" font-size="9">🔗 installment_id (FK)</text>
  <text x="600" y="390" font-size="9">proof_type/content</text>
  <text x="600" y="405" font-size="9">status (enum)</text>
  <text x="600" y="420" font-size="9">🔗 approved_by (FK)</text>

  <!-- Account Setting -->
  <rect x="1150" y="280" width="200" height="100" fill="#fce4ec" stroke="#c2185b" stroke-width="2" rx="5"/>
  <text x="1250" y="305" font-size="12" font-weight="bold" text-anchor="middle" fill="#880e4f">account_settings</text>
  <line x1="1150" y1="315" x2="1350" y2="315" stroke="#c2185b" stroke-width="1"/>
  <text x="1160" y="335" font-size="9">🔑 id (PK)</text>
  <text x="1160" y="350" font-size="9">loan_balance_<br/>threshold</text>

  <!-- Fund Pool -->
  <rect x="50" y="300" width="200" height="100" fill="#f3e5f5" stroke="#7b1fa2" stroke-width="2" rx="5"/>
  <text x="150" y="325" font-size="12" font-weight="bold" text-anchor="middle" fill="#4a148c">fund_pool</text>
  <line x1="50" y1="335" x2="250" y2="335" stroke="#7b1fa2" stroke-width="1"/>
  <text x="60" y="355" font-size="9">🔑 id (PK)</text>
  <text x="60" y="370" font-size="9">balance (int)</text>
  <text x="60" y="385" font-size="9">updated_at</text>

  <!-- Social Media IDs -->
  <rect x="50" y="480" width="220" height="120" fill="#e3f2fd" stroke="#0288d1" stroke-width="2" rx="5"/>
  <text x="160" y="505" font-size="12" font-weight="bold" text-anchor="middle" fill="#01579b">user_social_media_id</text>
  <line x1="50" y1="515" x2="270" y2="515" stroke="#0288d1" stroke-width="1"/>
  <text x="60" y="535" font-size="9">🔑 id (PK)</text>
  <text x="60" y="550" font-size="9">🔗 user_id (FK)</text>
  <text x="60" y="565" font-size="9">social_media</text>
  <text x="60" y="580" font-size="9">chat_id</text>

  <!-- Roles & Permissions -->
  <rect x="350" y="530" width="180" height="100" fill="#e3f2fd" stroke="#0288d1" stroke-width="2" rx="5"/>
  <text x="440" y="555" font-size="12" font-weight="bold" text-anchor="middle" fill="#01579b">roles</text>
  <line x1="350" y1="565" x2="530" y2="565" stroke="#0288d1" stroke-width="1"/>
  <text x="360" y="585" font-size="9">🔑 id (PK)</text>
  <text x="360" y="600" font-size="9">name (U)</text>
  <text x="360" y="615" font-size="9">created_at</text>

  <rect x="600" y="530" width="180" height="100" fill="#e3f2fd" stroke="#0288d1" stroke-width="2" rx="5"/>
  <text x="690" y="555" font-size="12" font-weight="bold" text-anchor="middle" fill="#01579b">permissions</text>
  <line x1="600" y1="565" x2="780" y2="565" stroke="#0288d1" stroke-width="1"/>
  <text x="610" y="585" font-size="9">🔑 id (PK)</text>
  <text x="610" y="600" font-size="9">codename (U)</text>
  <text x="610" y="615" font-size="9">name</text>

  <rect x="850" y="530" width="200" height="100" fill="#fff3e0" stroke="#e65100" stroke-width="2" rx="5"/>
  <text x="950" y="555" font-size="12" font-weight="bold" text-anchor="middle" fill="#bf360c">user_roles</text>
  <line x1="850" y1="565" x2="1050" y2="565" stroke="#e65100" stroke-width="1"/>
  <text x="860" y="585" font-size="9">🔑 id (PK)</text>
  <text x="860" y="600" font-size="9">🔗 user_id (FK)</text>
  <text x="860" y="615" font-size="9">🔗 role_id (FK)</text>

  <rect x="1100" y="530" width="230" height="100" fill="#fff3e0" stroke="#e65100" stroke-width="2" rx="5"/>
  <text x="1215" y="555" font-size="12" font-weight="bold" text-anchor="middle" fill="#bf360c">role_permissions</text>
  <line x1="1100" y1="565" x2="1330" y2="565" stroke="#e65100" stroke-width="1"/>
  <text x="1110" y="585" font-size="9">🔑 id (PK)</text>
  <text x="1110" y="600" font-size="9">🔗 role_id (FK)</text>
  <text x="1110" y="615" font-size="9">🔗 permission_id (FK)</text>

  <!-- Relationships -->
  <!-- users → accounts (1:1) -->
  <path d="M 150 230 L 420 80" stroke="#0288d1" stroke-width="1.5" stroke-dasharray="3,3" marker-end="url(#arrow)"/>
  <text x="270" y="150" font-size="8" fill="#0288d1">1:1</text>

  <!-- users → transactions (1:N) -->
  <path d="M 250 160 L 590 130" stroke="#e65100" stroke-width="1.5" stroke-dasharray="3,3" marker-end="url(#arrow)"/>
  <text x="420" y="140" font-size="8" fill="#e65100">1:N</text>

  <!-- users → loans (1:N) -->
  <path d="M 250 160 L 900 150" stroke="#7b1fa2" stroke-width="1.5" stroke-dasharray="3,3" marker-end="url(#arrow)"/>
  <text x="570" y="150" font-size="8" fill="#7b1fa2">1:N</text>

  <!-- loans → installments (1:N) -->
  <path d="M 1000 260 L 1000 300" stroke="#7b1fa2" stroke-width="1.5" stroke-dasharray="3,3" marker-end="url(#arrow)"/>
  <text x="1010" y="280" font-size="8" fill="#7b1fa2">1:N</text>

  <!-- users → deposits (1:N) -->
  <path d="M 250 340 L 320 320" stroke="#2e7d32" stroke-width="1.5" stroke-dasharray="3,3" marker-end="url(#arrow)"/>
  <text x="280" y="325" font-size="8" fill="#2e7d32">1:N</text>

  <!-- users → installment_payment (1:N) -->
  <path d="M 250 340 L 590 340" stroke="#e65100" stroke-width="1.5" stroke-dasharray="3,3" marker-end="url(#arrow)"/>
  <text x="420" y="330" font-size="8" fill="#e65100">1:N</text>

  <!-- users → user_social_media (1:N) -->
  <path d="M 150 400 L 160 480" stroke="#0288d1" stroke-width="1.5" stroke-dasharray="3,3" marker-end="url(#arrow)"/>
  <text x="160" y="440" font-size="8" fill="#0288d1">1:N</text>

  <!-- users → user_roles (1:N) -->
  <path d="M 150 400 L 950 530" stroke="#0288d1" stroke-width="1.5" stroke-dasharray="3,3" marker-end="url(#arrow)"/>

  <!-- roles → role_permissions (1:N) -->
  <path d="M 530 580 L 1100 580" stroke="#0288d1" stroke-width="1.5" stroke-dasharray="3,3" marker-end="url(#arrow)"/>
  <text x="810" y="570" font-size="8" fill="#0288d1">1:N</text>

  <!-- Legend -->
  <rect x="50" y="730" width="1300" height="240" fill="#f0f0f0" stroke="#999" stroke-width="1" rx="5"/>
  <text x="60" y="755" font-size="11" font-weight="bold" fill="#333">Legend & Key Constraints:</text>

  <text x="70" y="780" font-size="10" fill="#333">🔑 Primary Key (id, auto-increment)</text>
  <text x="70" y="800" font-size="10" fill="#333">🔗 Foreign Key (references another table)</text>
  <text x="70" y="820" font-size="10" fill="#333">U = UNIQUE constraint</text>

  <text x="700" y="780" font-size="10" fill="#333">Relationships: 1:1 (one-to-one, unique FK)</text>
  <text x="700" y="800" font-size="10" fill="#333">1:N (one-to-many)</text>

  <text x="70" y="850" font-size="9" fill="#333">Key Relationships:</text>
  <text x="70" y="870" font-size="9" fill="#333">• users ↔ accounts: 1:1 unique (user has one wallet)</text>
  <text x="70" y="890" font-size="9" fill="#333">• users ↔ transactions: 1:N (user can have many financial transactions)</text>
  <text x="70" y="910" font-size="9" fill="#333">• loans ↔ installments: 1:N (each loan has monthly installments)</text>
  <text x="70" y="930" font-size="9" fill="#333">• user_bank_info ↔ users: 1:1 unique (user has one bank info row)</text>
  <text x="700" y="870" font-size="9" fill="#333">• users ↔ user_roles: N:N (user can have multiple roles, role can be assigned to many users)</text>
  <text x="700" y="890" font-size="9" fill="#333">• roles ↔ permissions: N:N (role can have multiple permissions, permission can be on multiple roles)</text>
  <text x="700" y="910" font-size="9" fill="#333">• deposit_requests/installment_payment_requests: proof submissions with admin approval tracking</text>
  <text x="700" y="930" font-size="9" fill="#333">• account_settings: single row table for global configuration (loan balance threshold)</text>

  <!-- Arrow markers -->
  <defs>
    <marker id="arrow" markerWidth="10" markerHeight="10" refX="8" refY="5" orient="auto">
      <polygon points="0 0, 10 5, 0 10" fill="#555"/>
    </marker>
  </defs>
</svg>