<svg width="1200" height="900" xmlns="http://www.w3.org/2000/svg">
  <!-- Background -->
  <rect width="1200" height="900" fill="#f8f9fa"/>

  <!-- Title -->
  <text x="600" y="35" font-size="26" font-weight="bold" text-anchor="middle" fill="#1a1a1a">
    Service Layer Interactions
  </text>

  <!-- LoanService -->
  <rect x="50" y="80" width="200" height="200" fill="#f3e5f5" stroke="#7b1fa2" stroke-width="2" rx="5"/>
  <text x="150" y="110" font-size="13" font-weight="bold" text-anchor="middle" fill="#4a148c">LoanService</text>
  <line x1="50" y1="120" x2="250" y2="120" stroke="#7b1fa2" stroke-width="1"/>
  <text x="60" y="145" font-size="9">✓ create()</text>
  <text x="60" y="162" font-size="9">✓ approve()</text>
  <text x="60" y="179" font-size="9">✓ reject()</text>
  <text x="60" y="196" font-size="9">✓ get_loans()</text>
  <text x="60" y="213" font-size="9">✓ get_client_history()</text>
  <text x="60" y="230" font-size="9">• Uses: Account,</text>
  <text x="60" y="245" font-size="9">  InstallmentPayment</text>

  <!-- AccountService -->
  <rect x="350" y="80" width="200" height="200" fill="#e8f5e9" stroke="#2e7d32" stroke-width="2" rx="5"/>
  <text x="450" y="110" font-size="13" font-weight="bold" text-anchor="middle" fill="#1b5e20">AccountService</text>
  <line x1="350" y1="120" x2="550" y2="120" stroke="#2e7d32" stroke-width="1"/>
  <text x="360" y="145" font-size="9">✓ credit()</text>
  <text x="360" y="162" font-size="9">✓ debit()</text>
  <text x="360" y="179" font-size="9">✓ get_balance()</text>
  <text x="360" y="196" font-size="9">✓ get_loan_threshold()</text>
  <text x="360" y="213" font-size="9">✓ set_threshold()</text>
  <text x="360" y="230" font-size="9">• Used by: Loan,</text>
  <text x="360" y="245" font-size="9">  Deposit, Installment</text>

  <!-- DepositService -->
  <rect x="650" y="80" width="200" height="200" fill="#e8f5e9" stroke="#2e7d32" stroke-width="2" rx="5"/>
  <text x="750" y="110" font-size="13" font-weight="bold" text-anchor="middle" fill="#1b5e20">DepositService</text>
  <line x1="650" y1="120" x2="850" y2="120" stroke="#2e7d32" stroke-width="1"/>
  <text x="660" y="145" font-size="9">✓ create()</text>
  <text x="660" y="162" font-size="9">✓ approve()</text>
  <text x="660" y="179" font-size="9">✓ reject()</text>
  <text x="660" y="196" font-size="9">• Uses: Account,</text>
  <text x="660" y="213" font-size="9">  Transaction</text>
  <text x="660" y="230" font-size="9">• Notifies: Admin</text>
  <text x="660" y="245" font-size="9">  (notify.deposit_*)</text>

  <!-- InstallmentPaymentService -->
  <rect x="950" y="80" width="220" height="200" fill="#f3e5f5" stroke="#7b1fa2" stroke-width="2" rx="5"/>
  <text x="1060" y="110" font-size="13" font-weight="bold" text-anchor="middle" fill="#4a148c">InstallmentPayment<br/>Service</text>
  <line x1="950" y1="130" x2="1170" y2="130" stroke="#7b1fa2" stroke-width="1"/>
  <text x="960" y="155" font-size="9">✓ get_pending()</text>
  <text x="960" y="172" font-size="9">✓ create()</text>
  <text x="960" y="189" font-size="9">✓ approve()</text>
  <text x="960" y="206" font-size="9">✓ reject()</text>
  <text x="960" y="223" font-size="9">• Uses: Account,</text>
  <text x="960" y="238" font-size="9">  Transaction</text>

  <!-- NotificationPublisher -->
  <rect x="200" y="360" width="220" height="140" fill="#fff3e0" stroke="#e65100" stroke-width="2" rx="5"/>
  <text x="310" y="385" font-size="13" font-weight="bold" text-anchor="middle" fill="#bf360c">NotificationPublisher</text>
  <line x1="200" y1="395" x2="420" y2="395" stroke="#e65100" stroke-width="1"/>
  <text x="210" y="415" font-size="9">✓ notify_loan_request()</text>
  <text x="210" y="432" font-size="9">✓ notify_loan_approved()</text>
  <text x="210" y="449" font-size="9">✓ notify_loan_rejected()</text>
  <text x="210" y="466" font-size="9">✓ notify_deposit_request()</text>
  <text x="210" y="483" font-size="9">✓ notify_installment_*</text>

  <!-- UserService -->
  <rect x="550" y="360" width="180" height="140" fill="#e3f2fd" stroke="#0288d1" stroke-width="2" rx="5"/>
  <text x="640" y="385" font-size="13" font-weight="bold" text-anchor="middle" fill="#01579b">UserService</text>
  <line x1="550" y1="395" x2="730" y2="395" stroke="#0288d1" stroke-width="1"/>
  <text x="560" y="415" font-size="9">✓ create()</text>
  <text x="560" y="432" font-size="9">✓ get_by_username()</text>
  <text x="560" y="449" font-size="9">✓ check_phone()</text>
  <text x="560" y="466" font-size="9">✓ update_chat_id()</text>
  <text x="560" y="483" font-size="9">• Creates: Account</text>

  <!-- RoleService -->
  <rect x="850" y="360" width="180" height="140" fill="#e3f2fd" stroke="#0288d1" stroke-width="2" rx="5"/>
  <text x="940" y="385" font-size="13" font-weight="bold" text-anchor="middle" fill="#01579b">RoleService</text>
  <line x1="850" y1="395" x2="1030" y2="395" stroke="#0288d1" stroke-width="1"/>
  <text x="860" y="415" font-size="9">✓ create()</text>
  <text x="860" y="432" font-size="9">✓ get_all()</text>
  <text x="860" y="449" font-size="9">✓ delete()</text>
  <text x="860" y="466" font-size="9">✓ assign_to_user()</text>
  <text x="860" y="483" font-size="9">✓ get_user_roles()</text>

  <!-- Dependencies / Interactions -->
  <!-- LoanService → AccountService -->
  <path d="M 250 180 L 350 180" stroke="#7b1fa2" stroke-width="2" marker-end="url(#arrow)"/>
  <text x="290" y="175" font-size="8" fill="#7b1fa2">credit() debit() check_threshold()</text>

  <!-- LoanService → InstallmentPaymentService -->
  <path d="M 250 250 L 950 180" stroke="#7b1fa2" stroke-width="2" marker-end="url(#arrow)"/>
  <text x="520" y="210" font-size="8" fill="#7b1fa2">generate installments</text>

  <!-- LoanService → NotificationPublisher -->
  <path d="M 150 280 L 310 360" stroke="#7b1fa2" stroke-width="2" marker-end="url(#arrow)"/>
  <text x="210" y="315" font-size="8" fill="#7b1fa2">notify admins</text>

  <!-- DepositService → AccountService -->
  <path d="M 650 180 L 550 180" stroke="#2e7d32" stroke-width="2" marker-end="url(#arrow)"/>
  <text x="580" y="170" font-size="8" fill="#2e7d32">credit on approve</text>

  <!-- DepositService → NotificationPublisher -->
  <path d="M 750 280 L 350 360" stroke="#2e7d32" stroke-width="2" marker-end="url(#arrow)"/>
  <text x="530" y="315" font-size="8" fill="#2e7d32">notify_deposit_request</text>

  <!-- InstallmentPaymentService → AccountService -->
  <path d="M 950 180 L 550 180" stroke="#7b1fa2" stroke-width="2" marker-end="url(#arrow)"/>
  <text x="700" y="170" font-size="8" fill="#7b1fa2">debit on approve</text>

  <!-- UserService → AccountService -->
  <path d="M 640 500 L 450 280" stroke="#0288d1" stroke-width="2" marker-end="url(#arrow)"/>
  <text x="520" y="390" font-size="8" fill="#0288d1">create account</text>

  <!-- Permission Check Decorator -->
  <rect x="50" y="600" width="400" height="120" fill="#fff3e0" stroke="#e65100" stroke-width="2" rx="5"/>
  <text x="250" y="625" font-size="12" font-weight="bold" text-anchor="middle" fill="#bf360c">@permission Decorator</text>
  <line x1="50" y1="635" x2="450" y2="635" stroke="#e65100" stroke-width="1"/>
  <text x="60" y="655" font-size="9">Used on methods:</text>
  <text x="60" y="672" font-size="9">• LoanService.approve() → @permission(LOAN_APPROVE)</text>
  <text x="60" y="689" font-size="9">• LoanService.reject() → @permission(LOAN_REJECT)</text>
  <text x="60" y="706" font-size="9">• DepositService.approve/reject() → @permission(LOAN_APPROVE)</text>

  <!-- RPC Flow -->
  <rect x="550" y="600" width="600" height="120" fill="#e3f2fd" stroke="#0288d1" stroke-width="2" rx="5"/>
  <text x="850" y="625" font-size="12" font-weight="bold" text-anchor="middle" fill="#01579b">Message Flow (RPC Pattern)</text>
  <line x1="550" y1="635" x2="1150" y2="635" stroke="#0288d1" stroke-width="1"/>
  <text x="560" y="655" font-size="9">1. Bot publishes message with reply_to, correlation_id</text>
  <text x="560" y="672" font-size="9">2. Consumer routes to Service (e.g., LoanService.approve)</text>
  <text x="560" y="689" font-size="9">3. Service processes, may call other services (e.g., AccountService.credit)</text>
  <text x="560" y="706" font-size="9">4. Consumer publishes response back to reply_to queue with same correlation_id</text>

  <!-- Legend -->
  <rect x="50" y="770" width="1100" height="100" fill="#f0f0f0" stroke="#999" stroke-width="1" rx="5"/>
  <text x="60" y="790" font-size="11" font-weight="bold" fill="#333">Service Architecture Patterns:</text>
  <text x="60" y="810" font-size="9" fill="#333">→ Synchronous: Service A calls Service B (credit, debit, check_threshold); both complete in same transaction</text>
  <text x="60" y="828" font-size="9" fill="#333">⇢ Asynchronous: Service publishes notification via NotificationPublisher to RabbitMQ; Bot receives via Consumer</text>
  <text x="60" y="846" font-size="9" fill="#333">✓ All service methods return JSON strings (serialized by Consumer), catch exceptions, return error dicts on failure</text>

  <!-- Arrow markers -->
  <defs>
    <marker id="arrow" markerWidth="10" markerHeight="10" refX="8" refY="5" orient="auto">
      <polygon points="0 0, 10 5, 0 10" fill="#555"/>
    </marker>
  </defs>
</svg>